<?xml version="1.0" encoding="UTF-8" standalone="no"?>
<!-- Generator: Adobe Illustrator 21.0.0, SVG Export Plug-In . SVG Version: 6.00 Build 0)  -->

<svg
   xmlns:dc="http://purl.org/dc/elements/1.1/"
   xmlns:cc="http://creativecommons.org/ns#"
   xmlns:rdf="http://www.w3.org/1999/02/22-rdf-syntax-ns#"
   xmlns:svg="http://www.w3.org/2000/svg"
   xmlns="http://www.w3.org/2000/svg"
   xmlns:sodipodi="http://sodipodi.sourceforge.net/DTD/sodipodi-0.dtd"
   xmlns:inkscape="http://www.inkscape.org/namespaces/inkscape"
   version="1.1"
   id="Facebook"
   x="0px"
   y="0px"
   viewBox="0 0 100 100"
   style="enable-background:new 0 0 100 100;"
   xml:space="preserve"
   sodipodi:docname="hollow-cut-facebook.svg"
   inkscape:version="0.92.4 (5da689c313, 2019-01-14)"><metadata
   id="metadata9"><rdf:RDF><cc:Work
       rdf:about=""><dc:format>image/svg+xml</dc:format><dc:type
         rdf:resource="http://purl.org/dc/dcmitype/StillImage" /></cc:Work></rdf:RDF></metadata><defs
   id="defs7" /><sodipodi:namedview
   pagecolor="#ffffff"
   bordercolor="#666666"
   borderopacity="1"
   objecttolerance="10"
   gridtolerance="10"
   guidetolerance="10"
   inkscape:pageopacity="0"
   inkscape:pageshadow="2"
   inkscape:window-width="759"
   inkscape:window-height="480"
   id="namedview5"
   showgrid="false"
   inkscape:zoom="2.36"
   inkscape:cx="50"
   inkscape:cy="50"
   inkscape:window-x="0"
   inkscape:window-y="0"
   inkscape:window-maximized="0"
   inkscape:current-layer="Facebook" />
<path
   d="M50,0C22.4,0,0,22.4,0,50s22.4,50,50,50s50-22.4,50-50S77.6,0,50,0z M57,36.9c3.5,0,7.2-0.1,10.7,0.1  c-0.1,3.7,0,7.6-0.1,11.3c-3.5,0-7.1,0-10.6,0c0,11.7,0,23.3,0,35c-5,0-10,0-15,0c0-11.7,0-23.3,0-35c-3.1-0.1-6.4,0-9.6-0.1  c0-3.8,0-7.6,0-11.4c3.2,0,6.4,0,9.5,0c0.1-3,0-5.7,0.2-8.1s1-4.4,2.1-6.1c2.2-3.2,5.8-5.8,10.7-6c4-0.2,8.5,0.1,12.8,0.1  c0,3.8,0.1,7.7-0.1,11.4c-2.1,0.1-4.3-0.2-6.1,0c-1.9,0.2-3.3,1.3-3.9,2.7C56.7,32.5,57,34.6,57,36.9z"
   id="path2"
   style="fill:#ffffff" />
</svg>