<?xml version="1.0" encoding="UTF-8" standalone="no"?>
<svg
   xmlns:dc="http://purl.org/dc/elements/1.1/"
   xmlns:cc="http://creativecommons.org/ns#"
   xmlns:rdf="http://www.w3.org/1999/02/22-rdf-syntax-ns#"
   xmlns:svg="http://www.w3.org/2000/svg"
   xmlns="http://www.w3.org/2000/svg"
   xmlns:sodipodi="http://sodipodi.sourceforge.net/DTD/sodipodi-0.dtd"
   xmlns:inkscape="http://www.inkscape.org/namespaces/inkscape"
   width="66"
   height="17"
   viewBox="0 0 66 17"
   version="1.1"
   id="svg4"
   sodipodi:docname="disco-logo.svg"
   inkscape:version="0.92.4 (5da689c313, 2019-01-14)">
  <metadata
     id="metadata10">
    <rdf:RDF>
      <cc:Work
         rdf:about="">
        <dc:format>image/svg+xml</dc:format>
        <dc:type
           rdf:resource="http://purl.org/dc/dcmitype/StillImage" />
      </cc:Work>
    </rdf:RDF>
  </metadata>
  <defs
     id="defs8" />
  <sodipodi:namedview
     pagecolor="#ffffff"
     bordercolor="#666666"
     borderopacity="1"
     objecttolerance="10"
     gridtolerance="10"
     guidetolerance="10"
     inkscape:pageopacity="0"
     inkscape:pageshadow="2"
     inkscape:window-width="789"
     inkscape:window-height="480"
     id="namedview6"
     showgrid="false"
     inkscape:zoom="5.1363636"
     inkscape:cx="9.2477876"
     inkscape:cy="8.5"
     inkscape:window-x="-9"
     inkscape:window-y="-9"
     inkscape:window-maximized="1"
     inkscape:current-layer="svg4" />
  <path
     d="M5.954.138c1.163 0 2.243.208 3.235.624.997.42 1.86.992 2.59 1.721a7.76 7.76 0 0 1 1.707 2.599c.41 1.006.614 2.104.614 3.295 0 1.195-.203 2.294-.614 3.295a7.733 7.733 0 0 1-1.708 2.603 7.932 7.932 0 0 1-2.589 1.717c-.992.416-2.072.623-3.235.623H.144V.138h5.81zm5.46 8.239c0-.799-.134-1.542-.397-2.225a5.083 5.083 0 0 0-2.862-2.917c-.664-.277-1.398-.41-2.201-.41h-3.13v11.109h3.13c.803 0 1.537-.139 2.201-.416a5.072 5.072 0 0 0 1.731-1.149 5.253 5.253 0 0 0 1.13-1.767 6.127 6.127 0 0 0 .398-2.225zm7.98-8.239v16.477h-2.682V.138h2.682zm2.968 4.593c0-.725.133-1.371.396-1.943a4.148 4.148 0 0 1 1.108-1.45 4.894 4.894 0 0 1 1.648-.89 6.314 6.314 0 0 1 1.998-.31c1.334 0 2.474.356 3.416 1.062.941.706 1.578 1.703 1.906 2.986l-2.47 1.016c-.22-.85-.576-1.459-1.075-1.828-.494-.365-1.098-.55-1.823-.55-.798 0-1.403.185-1.81.564-.41.378-.613.83-.613 1.366 0 .36.079.66.235.895.157.236.379.439.66.61.282.175.614.332 1.002.47.383.143.803.282 1.255.425.6.203 1.168.43 1.708.67a5.52 5.52 0 0 1 1.426.918c.406.369.73.812.965 1.329.235.521.35 1.144.35 1.883 0 .77-.133 1.444-.4 2.026a4.065 4.065 0 0 1-1.095 1.458 4.574 4.574 0 0 1-1.624.882 6.387 6.387 0 0 1-1.962.295c-.568 0-1.13-.069-1.694-.212a4.92 4.92 0 0 1-2.862-1.943c-.369-.508-.64-1.14-.812-1.892l2.377-1.131c.379 1.661 1.376 2.497 2.991 2.497.752 0 1.339-.17 1.763-.508.425-.337.637-.821.637-1.45 0-.373-.078-.687-.235-.94a2.032 2.032 0 0 0-.637-.633 4.331 4.331 0 0 0-.928-.448c-.355-.124-.73-.253-1.121-.378-.531-.157-1.071-.35-1.62-.586a6.407 6.407 0 0 1-1.51-.91 4.421 4.421 0 0 1-1.117-1.361c-.29-.545-.433-1.205-.433-1.99zM34.67 8.377c0-1.177.212-2.266.632-3.272a8.155 8.155 0 0 1 1.745-2.613 8.033 8.033 0 0 1 2.598-1.73c.997-.416 2.077-.624 3.24-.624 1.126 0 2.192.204 3.19.6a9.081 9.081 0 0 1 2.69 1.685l-1.27 2.497a7.174 7.174 0 0 0-2.071-1.518c-.785-.388-1.653-.577-2.613-.577a5.79 5.79 0 0 0-2.164.397 5.173 5.173 0 0 0-2.885 2.907 6.012 6.012 0 0 0-.41 2.248c0 .83.138 1.588.41 2.261.277.674.66 1.26 1.154 1.754a5.16 5.16 0 0 0 1.73 1.14 5.7 5.7 0 0 0 2.165.402c.471 0 .96-.05 1.473-.152a7.5 7.5 0 0 0 1.657-.577l.521 2.658c-.66.25-1.278.439-1.85.563a8.44 8.44 0 0 1-1.8.19 8.203 8.203 0 0 1-3.19-.624 7.824 7.824 0 0 1-2.59-1.73 8.22 8.22 0 0 1-1.73-2.613c-.42-1.006-.632-2.095-.632-3.272zm14.64 0c0-1.177.207-2.266.623-3.272a7.971 7.971 0 0 1 1.73-2.613 7.947 7.947 0 0 1 2.613-1.73c1.001-.416 2.095-.624 3.272-.624 1.177 0 2.271.208 3.282.624 1.01.42 1.883.992 2.612 1.73a8.083 8.083 0 0 1 1.717 2.613c.415 1.006.623 2.095.623 3.272 0 1.177-.208 2.266-.623 3.272a8.034 8.034 0 0 1-1.717 2.613 7.783 7.783 0 0 1-2.612 1.73c-1.011.416-2.105.623-3.282.623s-2.27-.207-3.272-.623a7.876 7.876 0 0 1-4.343-4.343c-.416-1.006-.623-2.095-.623-3.272zm13.79 0a5.96 5.96 0 0 0-.41-2.225 5.243 5.243 0 0 0-1.154-1.763 5.194 5.194 0 0 0-1.768-1.154c-.678-.277-1.421-.41-2.22-.41-.803 0-1.541.133-2.224.41a5.194 5.194 0 0 0-1.768 1.154 5.243 5.243 0 0 0-1.154 1.763 5.96 5.96 0 0 0-.41 2.225c0 .803.138 1.541.41 2.225.277.683.66 1.269 1.154 1.767a5.183 5.183 0 0 0 1.768 1.15 5.854 5.854 0 0 0 2.224.415 5.83 5.83 0 0 0 2.22-.416 5.183 5.183 0 0 0 1.768-1.149 5.309 5.309 0 0 0 1.154-1.767c.272-.684.41-1.422.41-2.225z"
     fill="#000"
     fill-rule="nonzero"
     id="path2"
     style="fill:#ffffff" />
</svg>
