<?xml version="1.0" encoding="UTF-8" standalone="no"?>
<!-- Generator: Adobe Illustrator 19.0.0, SVG Export Plug-In . SVG Version: 6.00 Build 0)  -->

<svg
   xmlns:dc="http://purl.org/dc/elements/1.1/"
   xmlns:cc="http://creativecommons.org/ns#"
   xmlns:rdf="http://www.w3.org/1999/02/22-rdf-syntax-ns#"
   xmlns:svg="http://www.w3.org/2000/svg"
   xmlns="http://www.w3.org/2000/svg"
   xmlns:sodipodi="http://sodipodi.sourceforge.net/DTD/sodipodi-0.dtd"
   xmlns:inkscape="http://www.inkscape.org/namespaces/inkscape"
   version="1.1"
   id="Layer_1"
   x="0px"
   y="0px"
   viewBox="0 0 511.989 511.989"
   style="enable-background:new 0 0 511.989 511.989;"
   xml:space="preserve"
   sodipodi:docname="guitar-player.svg"
   inkscape:version="0.92.4 (5da689c313, 2019-01-14)"><metadata
   id="metadata67"><rdf:RDF><cc:Work
       rdf:about=""><dc:format>image/svg+xml</dc:format><dc:type
         rdf:resource="http://purl.org/dc/dcmitype/StillImage" /></cc:Work></rdf:RDF></metadata><defs
   id="defs65" /><sodipodi:namedview
   pagecolor="#ffffff"
   bordercolor="#666666"
   borderopacity="1"
   objecttolerance="10"
   gridtolerance="10"
   guidetolerance="10"
   inkscape:pageopacity="0"
   inkscape:pageshadow="2"
   inkscape:window-width="1920"
   inkscape:window-height="1001"
   id="namedview63"
   showgrid="false"
   inkscape:zoom="0.46094739"
   inkscape:cx="-8.6777799"
   inkscape:cy="255.99451"
   inkscape:window-x="-9"
   inkscape:window-y="-9"
   inkscape:window-maximized="1"
   inkscape:current-layer="Layer_1" />
<g
   id="g6"
   style="fill:#ffffff">
	<g
   id="g4"
   style="fill:#ffffff">
		<path
   d="M365.937,481.758l-21.949-130.316c-14.88,11.323-31.758,18.718-48.939,21.571l19.765,117.356    c2.378,14.121,15.753,23.634,29.867,21.256C358.798,509.248,368.315,495.876,365.937,481.758z"
   id="path2"
   style="fill:#ffffff" />
	</g>
</g>
<g
   id="g12"
   style="fill:#ffffff">
	<g
   id="g10"
   style="fill:#ffffff">
		<path
   d="M211.344,364.946l11.33-13.872c-1.01-1.094-1.996-2.216-2.943-3.38c-12.45-15.314-17.774-35.292-15.134-56.447    l-40.131,49.141c-4.308,5.276-6.368,12.037-5.73,18.818l12.135,129.28c1.337,14.241,13.959,24.723,28.23,23.386    c14.254-1.338,24.723-13.977,23.385-28.231L211.344,364.946z"
   id="path8"
   style="fill:#ffffff" />
	</g>
</g>
<g
   id="g18"
   style="fill:#ffffff">
	<g
   id="g16"
   style="fill:#ffffff">
		<circle
   cx="326.643"
   cy="44.765"
   r="44.765"
   id="circle14"
   style="fill:#ffffff" />
	</g>
</g>
<g
   id="g24"
   style="fill:#ffffff">
	<g
   id="g22"
   style="fill:#ffffff">
		<path
   d="M306.256,297.117c-17.527,7.288-37.795,0.855-47.827-15.258c-2.257-3.626-4.04-6.783-4.944-8.973    c-2.749-6.664-3.732-13.754-2.963-20.724c-5.242-0.776-10.178-3.737-13.272-8.794c-4.379-7.154-3.347-16.581,2.462-22.631    c7.959-8.288,21.34-7.615,28.368,1.501c2.588-1.833,5.395-3.398,8.4-4.637l19.732-8.139c-4.956-4.8-7.958-10.712-9.09-17.042    c-4.538-25.384-32.998-41-68.005-23.497c-11.152-13.718-42.37-52.115-53.497-65.802l5.335-4.338    c4.916-3.997,5.662-11.224,1.665-16.141c-0.019-0.023-0.041-0.044-0.061-0.067c-4.006-4.85-11.212-5.555-16.079-1.598    l-5.335,4.338l-2.894-3.561l5.738-4.665c4.901-3.985,5.47-11.101,1.262-15.814l-0.007-0.008c-4.203-4.708-11.65-5.303-16.548-1.32    l-4.921,4.001l-1.688-2.078c-5.203-6.399-14.984-7.186-21.131-1.232c-5.391,5.223-5.588,13.837-0.853,19.66l1.416,1.743    l-5.059,4.113c-4.585,3.727-5.897,10.362-2.695,15.326c3.717,5.763,11.601,7.008,16.894,2.703l5.335-4.337l2.895,3.56l-5.06,4.113    c-4.585,3.728-5.897,10.363-2.693,15.328c3.718,5.761,11.605,7.001,16.893,2.702c3.175-2.581,3.398-2.762,5.335-4.337l53.497,65.8    c-21.577,26.285-18.09,60.423,9.123,71.37c13.512,5.434,21.523,19.458,19.381,33.865c-2.286,15.38,0.858,30.553,10.457,42.362    c23.007,28.301,68.505,22.389,98.072-1.59c0.031-0.026,0.064-0.048,0.095-0.074c18.47-15.013,32.109-37.525,32.812-61.007    L306.256,297.117z"
   id="path20"
   style="fill:#ffffff" />
	</g>
</g>
<g
   id="g30"
   style="fill:#ffffff">
	<g
   id="g28"
   style="fill:#ffffff">
		<path
   d="M370.205,115.22l-73.481-16.71c-0.001,0-0.003,0-0.004-0.001l-39.818-9.056c-21.254-4.834-42.016,5.046-54.972,25.455    l23.692,29.141c3.575-1.037,14.135-3.115,20.736-3.165c19.089-0.144,37.071,6.67,49.259,21.662    c6.148,7.562,10.157,16.384,11.916,26.221c0.878,4.91,4.575,8.328,9.471,9.388c3.476,0.752,6.539,0.029,6.539,0.029l29.931-12.347    l4.721-20.76c0.453-1.99,2.21-3.492,4.25-3.448c2.808,0.06,4.713,2.625,4.137,5.218c-4.24,19.365-2.126,9.708-8.669,39.592    l-73.529,30.331c-11.028,4.549-16.281,17.177-11.732,28.206c0.011,0.027,0.025,0.051,0.036,0.078    c4.538,10.882,17.095,16.223,28.171,11.655c11.817-4.875,72.655-29.969,83.975-34.639c6.63-2.734,11.382-8.589,12.864-15.349    c2.486-11.346,8.616-39.345,11.074-50.569C414.854,148.774,397.553,121.44,370.205,115.22z"
   id="path26"
   style="fill:#ffffff" />
	</g>
</g>
<g
   id="g32"
   style="fill:#ffffff">
</g>
<g
   id="g34"
   style="fill:#ffffff">
</g>
<g
   id="g36"
   style="fill:#ffffff">
</g>
<g
   id="g38"
   style="fill:#ffffff">
</g>
<g
   id="g40"
   style="fill:#ffffff">
</g>
<g
   id="g42"
   style="fill:#ffffff">
</g>
<g
   id="g44"
   style="fill:#ffffff">
</g>
<g
   id="g46"
   style="fill:#ffffff">
</g>
<g
   id="g48"
   style="fill:#ffffff">
</g>
<g
   id="g50"
   style="fill:#ffffff">
</g>
<g
   id="g52"
   style="fill:#ffffff">
</g>
<g
   id="g54"
   style="fill:#ffffff">
</g>
<g
   id="g56"
   style="fill:#ffffff">
</g>
<g
   id="g58"
   style="fill:#ffffff">
</g>
<g
   id="g60"
   style="fill:#ffffff">
</g>
</svg>